<?xml version="1.0" standalone="no"?>
<!DOCTYPE svg PUBLIC "-//W3C//DTD SVG 20010904//EN"
 "http://www.w3.org/TR/2001/REC-SVG-20010904/DTD/svg10.dtd">
<svg version="1.0" xmlns="http://www.w3.org/2000/svg"
 width="625.000000pt" height="625.000000pt" viewBox="0 0 625.000000 625.000000"
 preserveAspectRatio="xMidYMid meet">
<metadata>
Created by potrace 1.14, written by Peter Selinger 2001-2017
</metadata>
<g transform="translate(0.000000,625.000000) scale(0.100000,-0.100000)"
fill="#000000" stroke="none">
<path d="M5063 5693 c-23 -67 -127 -265 -156 -298 -32 -37 -38 -40 -88 -40
l-53 0 -26 -70 c-14 -38 -50 -105 -79 -149 -65 -96 -102 -174 -137 -291 -24
-80 -28 -107 -28 -240 l-1 -150 48 -143 c56 -169 61 -240 25 -312 -41 -80 -51
-83 -255 -81 -142 1 -196 -2 -270 -18 -50 -10 -96 -22 -102 -25 -5 -4 -29 -10
-53 -15 -60 -13 -215 -58 -230 -67 -6 -4 -23 -8 -37 -9 -14 -1 -30 -3 -36 -5
-5 -2 -21 0 -35 4 -17 5 -42 0 -74 -13 -61 -27 -84 -26 -179 4 -98 31 -149 31
-268 0 -110 -29 -152 -31 -213 -10 -25 9 -57 15 -73 14 -30 -2 -273 115 -273
131 0 5 -21 19 -48 30 -120 54 -348 69 -489 32 -145 -38 -185 -29 -221 55 -20
48 -24 79 -37 348 -12 225 -78 334 -385 632 -88 84 -127 130 -145 169 -23 48
-29 54 -56 54 -17 0 -39 -5 -50 -11 -16 -8 -30 -6 -62 10 -71 35 -117 81 -185
185 -91 141 -129 186 -159 186 -33 0 -38 -21 -23 -99 15 -82 3 -132 -36 -150
-20 -9 -31 -8 -55 5 -44 22 -71 15 -81 -23 -6 -22 -17 -34 -38 -42 -27 -9 -30
-14 -30 -53 0 -41 -23 -144 -34 -155 -3 -3 -20 -8 -38 -12 -44 -9 -47 -36 -13
-124 30 -82 32 -118 4 -142 -16 -15 -19 -29 -17 -69 3 -46 1 -51 -24 -64 -47
-23 -37 -53 37 -112 36 -29 70 -60 75 -69 11 -22 -5 -41 -35 -41 -23 0 -152
60 -195 90 -34 24 -68 26 -77 3 -11 -28 15 -124 54 -203 30 -60 60 -98 151
-189 103 -104 114 -119 124 -165 24 -116 86 -224 177 -308 65 -61 127 -90 241
-113 36 -7 99 -26 140 -42 70 -26 84 -28 230 -28 214 1 390 38 641 139 224 89
297 94 432 29 127 -61 206 -144 209 -219 1 -36 41 -103 83 -139 6 -5 17 -20
24 -33 11 -21 9 -29 -16 -65 -27 -39 -28 -44 -28 -171 1 -156 21 -236 86 -335
77 -118 79 -128 79 -323 -1 -190 5 -221 66 -386 20 -53 41 -110 45 -127 10
-35 32 -225 54 -455 35 -366 78 -691 101 -761 22 -69 69 -105 95 -73 7 8 13
41 15 74 4 80 21 138 44 150 45 24 70 -20 79 -143 6 -76 8 -82 29 -85 78 -11
140 177 166 508 3 30 8 89 11 130 4 41 8 118 10 170 2 52 8 123 14 157 5 34 7
81 5 103 -6 47 25 138 84 248 19 37 40 77 46 89 6 13 14 23 19 23 4 0 7 6 7
14 0 8 4 16 8 18 5 2 22 23 39 49 45 65 54 131 46 331 l-6 169 30 32 c58 63
64 81 60 170 -1 45 0 99 4 120 3 20 2 40 -3 43 -5 3 -4 12 3 20 6 8 7 14 2 14
-6 0 -8 11 -5 25 4 26 21 35 23 13 1 -19 20 43 23 76 1 18 -4 32 -14 39 -14 8
-16 17 -9 46 4 19 7 36 6 36 -17 2 -43 27 -45 43 -2 14 9 29 40 50 36 25 47
41 66 96 14 39 30 66 38 66 8 0 38 19 67 43 150 122 354 130 627 23 200 -79
253 -91 400 -91 116 0 130 2 190 29 64 28 88 34 225 57 166 28 299 100 412
222 44 48 84 78 163 122 58 31 133 80 168 108 52 41 63 54 60 76 -5 44 -44 39
-160 -23 -91 -49 -108 -55 -142 -49 -35 6 -41 3 -66 -27 -23 -28 -39 -35 -111
-51 -46 -10 -115 -21 -154 -25 -60 -5 -73 -4 -94 13 -36 29 -16 54 80 99 59
28 93 52 130 92 70 77 79 132 21 132 -50 0 -55 17 -22 79 25 47 133 196 210
292 21 25 35 84 19 73 -5 -3 -9 -1 -9 5 0 19 -40 2 -88 -37 -26 -22 -73 -54
-105 -72 l-59 -33 -20 20 c-19 20 -19 22 -3 54 10 19 35 55 57 81 49 59 49 91
-1 98 -43 6 -61 32 -42 62 17 28 21 67 8 75 -6 4 -25 6 -43 5 -43 -3 -56 17
-62 96 -3 51 1 89 18 153 13 46 23 98 24 114 1 26 -3 30 -26 33 -15 2 -38 -4
-50 -12 -29 -20 -34 -20 -58 4 -15 15 -20 33 -20 70 0 52 -1 53 -53 64 -20 5
-33 19 -50 54 -25 53 -48 62 -96 37 -23 -11 -36 -13 -50 -6 -26 14 -34 36 -40
111 -6 62 -7 65 -34 68 -19 2 -29 -2 -34 -15z m-1796 -4287 c35 -91 47 -168
40 -265 -6 -102 -28 -164 -54 -159 -13 2 -20 18 -26 58 -5 30 -17 91 -28 135
-22 94 -26 264 -7 283 26 26 51 9 75 -52z m-185 8 c11 -65 9 -173 -7 -274 -8
-52 -17 -121 -20 -152 -4 -32 -11 -60 -16 -63 -22 -14 -48 8 -63 53 -34 105
-30 261 10 379 35 103 83 131 96 57z"/>
</g>
</svg>
